<?xml version="1.0" encoding="utf-8"?><svg xmlns="http://www.w3.org/2000/svg" xmlns:xlink="http://www.w3.org/1999/xlink"><symbol viewBox="0 0 240.823 240.823" id="back" xmlns="http://www.w3.org/2000/svg"><path d="M57.633 129.007L165.93 237.268c4.752 4.74 12.451 4.74 17.215 0 4.752-4.74 4.752-12.439 0-17.179l-99.707-99.671 99.695-99.671c4.752-4.74 4.752-12.439 0-17.191-4.752-4.74-12.463-4.74-17.215 0L57.621 111.816c-4.679 4.691-4.679 12.511.012 17.191z"/></symbol><symbol viewBox="0 0 512.006 512.006" id="call" xmlns="http://www.w3.org/2000/svg"><path d="M502.05 407.127l-56.761-37.844-50.459-33.633c-9.738-6.479-22.825-4.355-30.014 4.873l-31.223 40.139c-6.707 8.71-18.772 11.213-28.39 5.888-21.186-11.785-46.239-22.881-101.517-78.23-55.278-55.349-66.445-80.331-78.23-101.517-5.325-9.618-2.822-21.683 5.888-28.389l40.139-31.223c9.227-7.188 11.352-20.275 4.873-30.014l-32.6-48.905-38.877-58.316C98.262.03 85.016-2.95 74.786 3.185L29.95 30.083A54.779 54.779 0 0 0 5.074 62.277C-7.187 106.98-9.659 205.593 148.381 363.633s256.644 155.56 301.347 143.298a54.771 54.771 0 0 0 32.194-24.876l26.898-44.835c6.136-10.231 3.156-23.476-6.77-30.093zM291.309 79.447c82.842.092 149.977 67.226 150.069 150.069a8.828 8.828 0 0 0 17.656 0c-.102-92.589-75.135-167.622-167.724-167.724a8.828 8.828 0 0 0-8.828 8.828 8.826 8.826 0 0 0 8.827 8.827z"/><path d="M291.309 132.412c53.603.063 97.04 43.501 97.103 97.103a8.828 8.828 0 0 0 17.656 0c-.073-63.349-51.409-114.686-114.759-114.759a8.828 8.828 0 0 0 0 17.656z"/><path d="M291.309 185.378c24.365.029 44.109 19.773 44.138 44.138a8.828 8.828 0 0 0 17.656 0c-.039-34.111-27.682-61.754-61.793-61.793a8.828 8.828 0 0 0-8.828 8.828 8.826 8.826 0 0 0 8.827 8.827z"/></symbol><symbol viewBox="0 0 384 384" id="exit" xmlns="http://www.w3.org/2000/svg"><path d="M188.373 94.293L160 121.813l38.4 38.4 24.96 10.454H10.667v42.666h212.266l-25.386 11.307-37.76 37.547 28.8 27.306L286.08 192z"/><path d="M138.667 0H96v85.333h42.667V42.667h192v298.666h-192v-42.666H96V384h277.333V0z"/></symbol><symbol viewBox="0 0 240.823 240.823" id="next" xmlns="http://www.w3.org/2000/svg"><path d="M183.189 111.816L74.892 3.555c-4.752-4.74-12.451-4.74-17.215 0-4.752 4.74-4.752 12.439 0 17.179l99.707 99.671-99.695 99.671c-4.752 4.74-4.752 12.439 0 17.191 4.752 4.74 12.463 4.74 17.215 0l108.297-108.261c4.68-4.691 4.68-12.511-.012-17.19z"/></symbol><symbol viewBox="-21 -22 682.665 682" id="skype" xmlns="http://www.w3.org/2000/svg"><path d="M617.348 372.777c-.207 1.125-.559-1.015 0 0 3.3-17.984 5.035-36.386 5.035-54.785 0-40.797-7.985-80.37-23.766-117.633-15.226-35.988-37.008-68.308-64.777-96.058-27.727-27.754-60.07-49.531-96.043-64.754-37.246-15.762-76.824-23.75-117.617-23.75-19.227 0-38.485 1.805-57.227 5.406-.039.008-.14.02-.14.02C237.098 7.55 208.183.25 178.91.25c-47.789 0-92.719 18.61-126.508 52.41C18.617 86.45 0 131.383 0 179.168c0 30.418 7.828 60.32 22.508 86.738-2.977 17.121-4.551 34.617-4.551 52.086 0 40.805 7.988 80.375 23.77 117.64 15.203 36.005 36.992 68.302 64.738 96.056 27.77 27.75 60.066 49.562 96.078 64.746 37.25 15.793 76.84 23.785 117.633 23.785 17.758 0 35.554-1.621 52.93-4.703a178.73 178.73 0 0 0 88.015 23.191c47.777 0 92.688-18.574 126.48-52.39C621.399 552.546 640 507.604 640 459.82c0-30.52-7.867-60.52-22.652-87.043zM321.383 503.074c-107.363 0-155.399-52.781-155.399-92.344 0-20.285 14.98-34.511 35.625-34.511 45.95 0 34.051 65.972 119.774 65.972 43.887 0 68.117-23.828 68.117-48.21 0-14.668-7.234-30.926-36.133-38.047l-95.492-23.84c-76.91-19.285-90.863-60.864-90.863-99.946 0-81.144 76.402-111.609 148.148-111.609 66.094 0 144.004 36.527 144.004 85.207 0 20.86-18.062 32.988-38.7 32.988-39.21 0-32-54.273-110.984-54.273-39.19 0-60.902 17.75-60.902 43.144 0 25.352 30.957 33.45 57.832 39.57l70.684 15.692c77.426 17.25 97.054 62.453 97.054 105.031.008 65.938-50.609 115.176-152.765 115.176zm0 0"/></symbol><symbol viewBox="0 0 300 300" id="telegram" xmlns="http://www.w3.org/2000/svg"><path d="M5.299 144.645l69.126 25.8 26.756 86.047c1.712 5.511 8.451 7.548 12.924 3.891l38.532-31.412a11.496 11.496 0 0 1 14.013-.391l69.498 50.457c4.785 3.478 11.564.856 12.764-4.926L299.823 29.22c1.31-6.316-4.896-11.585-10.91-9.259L5.218 129.402c-7.001 2.7-6.94 12.612.081 15.243zm91.57 12.066l135.098-83.207c2.428-1.491 4.926 1.792 2.841 3.726L123.313 180.87a23.112 23.112 0 0 0-7.163 13.829l-3.798 28.146c-.503 3.758-5.782 4.131-6.819.494l-14.607-51.325c-1.673-5.854.765-12.107 5.943-15.303z"/></symbol><symbol viewBox="0 0 24 24" id="youtube" xmlns="http://www.w3.org/2000/svg"><path d="M23.469 5.929l.03.196a3.043 3.043 0 0 0-2.068-2.112l-.021-.005c-1.871-.508-9.4-.508-9.4-.508s-7.51-.01-9.4.508A3.044 3.044 0 0 0 .527 6.104l-.005.021c-.699 3.651-.704 8.038.031 11.947l-.031-.198a3.043 3.043 0 0 0 2.068 2.112l.021.005c1.869.509 9.4.509 9.4.509s7.509 0 9.4-.509a3.043 3.043 0 0 0 2.084-2.096l.005-.021c.318-1.698.5-3.652.5-5.648l-.001-.221.001-.23c0-1.997-.182-3.951-.531-5.846zM9.608 15.651V8.358l6.266 3.652z"/></symbol></svg>